<?xml version="1.0" standalone="no"?>
<!DOCTYPE svg PUBLIC "-//W3C//DTD SVG 1.1//EN" "http://www.w3.org/Graphics/SVG/1.1/DTD/svg11.dtd">
<svg width="1024px" height="1024px" version="1.1" xmlns="http://www.w3.org/2000/svg" xmlns:xlink="http://www.w3.org/1999/xlink" xml:space="preserve" style="fill-rule:evenodd;clip-rule:evenodd;stroke-linejoin:round;stroke-miterlimit:1.41421;">
    <g>
        <g>
            <g>
                <path d="M287.53,423.411C285.131,367.893 301.238,323.341 323.172,287.7C345.105,252.059 384.516,216.76 428.039,220.873C454.085,223.272 465.394,233.21 471.22,246.918C477.046,260.969 478.417,292.498 478.417,305.863L478.417,639.315C415.359,630.747 356.757,594.42 320.087,536.503C299.868,504.289 289.244,461.451 287.53,423.411" style="fill:rgb(54,54,54);fill-rule:nonzero;"/>
            </g>
            <g>
                <path d="M511.316,11.4806C794.047,11.4806 1023.32,237.323 1023.32,515.598C1023.32,774.34 826.261,986.817 571.632,1015.6C558.952,1016.29 551.755,1014.92 545.587,1010.12C540.789,1006.01 538.732,999.154 538.732,993.328L538.39,692.776C676.157,678.383 786.508,564.605 784.794,425.124C783.081,291.813 691.236,184.889 569.919,159.871C566.834,159.186 564.435,158.501 562.722,160.214C560.666,161.928 562.036,166.726 562.036,166.726L571.289,211.277C571.289,211.277 571.975,214.019 572.66,215.047C573.346,215.732 574.716,216.418 575.745,216.76C628.521,233.21 676.157,268.851 699.461,312.032C718.652,348.016 731.332,375.09 731.332,424.096C731.332,529.649 648.398,626.635 538.732,639.657L538.732,306.206C538.732,271.25 537.019,230.811 516.457,202.71C500.35,181.119 472.591,167.754 428.724,167.754C365.324,167.754 289.587,214.019 251.546,314.431C239.894,344.589 233.04,383.315 233.383,424.782C233.726,563.92 342.363,677.697 479.445,692.776L479.787,993.328C479.787,1001.21 477.388,1007.04 472.591,1010.81C467.107,1015.26 462.309,1016.97 446.888,1015.6C441.062,1015.26 430.095,1013.55 425.64,1012.86C184.034,972.423 0.00153279,765.43 0.00153279,515.941C-0.683876,237.323 228.585,11.4806 511.316,11.4806" style="fill:rgb(54,54,54);fill-rule:nonzero;"/>
            </g>
        </g>
    </g>
</svg>
